<?xml version="1.0" encoding="utf-8"?>
<!-- Generator: Adobe Illustrator 16.0.0, SVG Export Plug-In . SVG Version: 6.00 Build 0)  -->
<!DOCTYPE svg PUBLIC "-//W3C//DTD SVG 1.1//EN" "http://www.w3.org/Graphics/SVG/1.1/DTD/svg11.dtd">
<svg version="1.1" id="Layer_1" xmlns="http://www.w3.org/2000/svg" xmlns:xlink="http://www.w3.org/1999/xlink" x="0px" y="0px"
	 width="326.982px" height="305.985px" viewBox="0 0 326.982 305.985" enable-background="new 0 0 326.982 305.985"
	 xml:space="preserve">
<g>
	<polygon fill="none" stroke="#EAEAEA" stroke-width="9" stroke-miterlimit="10" points="151.561,126.902 11.551,126.902 
		73.918,11.292 105.011,61.358 112.648,53.816 	"/>
	<path fill="none" stroke="#B1FFEC" stroke-width="9" stroke-miterlimit="10" d="M317.778,251.297
		c0,20.568-14.909,37.242-33.288,37.242c-8.703,0-16.619-3.741-22.553-9.842c-2.416,8.241-9.89,14.255-18.737,14.255
		c-10.477,0-19.03-8.43-19.53-19.014c-3.882,2.629-8.377,4.116-13.159,4.116c-14.811,0-26.814-14.323-26.814-32
		c0-17.679,12.004-32.002,26.814-32.002c0.179,0,0.364,0,0.536,0.021c2.867-18.834,16.858-33.126,33.68-33.126
		c16.998,0,34.984,14.717,33.76,33.714l0,0C308.066,212.581,317.778,230.728,317.778,251.297z"/>
	<path fill="none" stroke="#FF5119" stroke-width="9" stroke-miterlimit="10" d="M124.143,255.79c0,22.9-19.93,41.462-44.52,41.462
		c-24.582,0-44.514-18.562-44.514-41.462c0-5.377,3.104-15.236,3.104-15.236c2.636-4.502,12.958-21.56-7.044-33.816
		c20.971-13.552,31.355,11.851,31.355,11.851l19.135-38.931c1.041,28.151,10.493,35.867,10.493,35.867s10.788-19.245,30.575-15.803
		c-15.914,7.957-11.229,25.084-5.634,37.264C119.432,241.955,124.143,247.658,124.143,255.79z"/>
	<path fill="none" stroke="#00B287" stroke-width="9" stroke-miterlimit="10" d="M296.569,86.067
		c0,24.887-20.531,44.994-45.87,44.994c-25.332,0-45.863-20.22-45.863-45.109c0-24.965,45.863-54.082,45.863-79.547
		C250.699,31.87,296.569,60.986,296.569,86.067z"/>
</g>
</svg>
